<svg width="1162" height="571" viewBox="0 0 1162 571" fill="none" xmlns="http://www.w3.org/2000/svg">
<path d="M0 115.666C0 120.084 3.58172 123.666 8 123.666C12.4183 123.666 16 120.084 16 115.666C16 111.248 12.4183 107.666 8 107.666C3.58172 107.666 0 111.248 0 115.666ZM30.673 102.719L31.3015 104.081L30.673 102.719ZM213.272 37.9814L212.866 36.5373L213.272 37.9814ZM505.794 2.40067L505.751 3.90005L505.794 2.40067ZM649.222 23.4526L649.667 22.0203L649.222 23.4526ZM738.8 82.8526L740.155 82.2096L738.8 82.8526ZM724.326 165.775L725.557 166.632L724.326 165.775ZM582.316 267.477L581.581 266.169L582.316 267.477ZM456.197 348.324L455.221 347.185L456.197 348.324ZM406.802 425.712L405.31 425.56L406.802 425.712ZM507.414 550.443L506.91 551.856L507.414 550.443ZM646.489 568.925L646.468 567.425L646.489 568.925ZM837.59 547.181L837.296 545.71L837.59 547.181ZM1146 448.346C1146 452.764 1149.58 456.346 1154 456.346C1158.42 456.346 1162 452.764 1162 448.346C1162 443.927 1158.42 440.346 1154 440.346C1149.58 440.346 1146 443.927 1146 448.346ZM15.8635 113.638C16.5766 113.216 16.8129 112.296 16.3913 111.583C15.9697 110.87 15.0499 110.633 14.3367 111.055L15.8635 113.638ZM23.0389 105.356C22.3457 105.81 22.1515 106.74 22.6052 107.433C23.0588 108.126 23.9885 108.32 24.6817 107.867L23.0389 105.356ZM44.5369 98.1122C45.295 97.7781 45.6387 96.8928 45.3047 96.1347C44.9706 95.3766 44.0852 95.0329 43.3271 95.3669L44.5369 98.1122ZM61.188 87.7278C60.4229 88.0455 60.0602 88.9232 60.3778 89.6883C60.6955 90.4534 61.5732 90.8162 62.3383 90.4985L61.188 87.7278ZM89.3276 79.7629C90.1017 79.4678 90.49 78.601 90.1948 77.827C89.8997 77.0529 89.0329 76.6646 88.2589 76.9598L89.3276 79.7629ZM106.466 70.2031C105.687 70.4846 105.283 71.3444 105.565 72.1236C105.846 72.9027 106.706 73.3061 107.485 73.0246L106.466 70.2031ZM134.928 63.4809C135.714 63.2178 136.137 62.3677 135.874 61.5822C135.611 60.7967 134.761 60.3732 133.975 60.6363L134.928 63.4809ZM152.428 54.5999C151.639 54.8521 151.203 55.6963 151.456 56.4854C151.708 57.2745 152.552 57.7097 153.341 57.4575L152.428 54.5999ZM181.106 48.8685C181.9 48.6306 182.35 47.7945 182.113 47.001C181.875 46.2074 181.039 45.7569 180.245 45.9948L181.106 48.8685ZM198.867 40.5214C198.071 40.7509 197.612 41.5823 197.841 42.3783C198.071 43.1743 198.902 43.6335 199.698 43.4039L198.867 40.5214ZM227.923 35.5473C228.724 35.3361 229.202 34.5155 228.991 33.7144C228.779 32.9134 227.959 32.4352 227.158 32.6464L227.923 35.5473ZM246.308 27.8136C245.503 28.0078 245.008 28.8181 245.202 29.6235C245.396 30.4288 246.206 30.9242 247.012 30.73L246.308 27.8136ZM275.825 24.2543C276.636 24.0852 277.156 23.2907 276.987 22.4797C276.818 21.6687 276.023 21.1484 275.213 21.3175L275.825 24.2543ZM294.586 17.4834C293.772 17.6359 293.235 18.4197 293.388 19.2339C293.54 20.0482 294.324 20.5846 295.138 20.4321L294.586 17.4834ZM324.245 15.4331C325.063 15.3052 325.623 14.5379 325.495 13.7194C325.367 12.9009 324.6 12.3411 323.781 12.4691L324.245 15.4331ZM343.323 9.61407C342.502 9.72568 341.927 10.4816 342.038 11.3025C342.15 12.1234 342.906 12.6983 343.727 12.5867L343.323 9.61407ZM373.047 9.04306C373.871 8.95586 374.468 8.21733 374.381 7.3935C374.294 6.56968 373.555 5.97253 372.731 6.05973L373.047 9.04306ZM392.39 4.1746C391.564 4.24555 390.953 4.97217 391.024 5.79755C391.095 6.62294 391.821 7.23452 392.647 7.16357L392.39 4.1746ZM422.106 5.06915C422.933 5.02262 423.565 4.31439 423.519 3.48727C423.472 2.66015 422.764 2.02736 421.937 2.07389L422.106 5.06915ZM441.664 1.15946C440.837 1.18964 440.19 1.88523 440.22 2.71311C440.25 3.54098 440.946 4.18765 441.774 4.15747L441.664 1.15946ZM471.3 3.5214C472.129 3.51594 472.796 2.83995 472.791 2.01154C472.785 1.18313 472.109 0.516005 471.281 0.52147L471.3 3.5214ZM491.03 0.589207C490.202 0.578035 489.521 1.24049 489.51 2.06884C489.499 2.89719 490.161 3.57776 490.99 3.58893L491.03 0.589207ZM520.257 4.43761C521.085 4.4755 521.786 3.83535 521.824 3.00779C521.862 2.18023 521.222 1.47864 520.395 1.44075L520.257 4.43761ZM539.789 2.57638C538.963 2.51689 538.245 3.13852 538.185 3.96481C538.126 4.79109 538.747 5.50915 539.574 5.56863L539.789 2.57638ZM568.456 8.30279C569.279 8.40067 570.025 7.81314 570.123 6.99052C570.22 6.16789 569.633 5.42168 568.81 5.3238L568.456 8.30279ZM588.073 7.96294C587.254 7.83538 586.487 8.39553 586.36 9.21408C586.232 10.0326 586.792 10.7996 587.611 10.9272L588.073 7.96294ZM616.102 16.2565C616.911 16.4347 617.712 15.9234 617.89 15.1144C618.068 14.3053 617.557 13.505 616.748 13.3268L616.102 16.2565ZM635.648 17.9507C634.848 17.7347 634.025 18.208 633.809 19.0078C633.593 19.8076 634.066 20.631 634.866 20.847L635.648 17.9507ZM664.453 30.087C665.233 30.3652 666.091 29.9582 666.369 29.1779C666.648 28.3976 666.241 27.5394 665.46 27.2612L664.453 30.087ZM686.083 35.5584C685.33 35.2139 684.44 35.5453 684.095 36.2987C683.751 37.0521 684.082 37.9421 684.835 38.2866L686.083 35.5584ZM713.132 54.8025C713.791 55.3043 714.732 55.1769 715.234 54.5178C715.736 53.8588 715.608 52.9176 714.949 52.4157L713.132 54.8025ZM731.128 67.9283C730.608 67.2832 729.664 67.1817 729.019 67.7016C728.374 68.2214 728.273 69.1657 728.792 69.8107L731.128 67.9283ZM741.553 95.6541C741.726 96.4642 742.523 96.9804 743.333 96.8071C744.144 96.6338 744.66 95.8365 744.486 95.0265L741.553 95.6541ZM745.764 112.942C745.812 112.115 745.181 111.406 744.354 111.357C743.527 111.309 742.817 111.94 742.769 112.767L745.764 112.942ZM737.23 138.051C736.943 138.828 737.34 139.69 738.117 139.977C738.895 140.264 739.757 139.867 740.044 139.09L737.23 138.051ZM732.607 155.285C733.007 154.56 732.743 153.647 732.017 153.247C731.292 152.848 730.38 153.112 729.98 153.837L732.607 155.285ZM715.164 175.343C714.636 175.981 714.725 176.927 715.363 177.455C716.001 177.983 716.947 177.894 717.475 177.256L715.164 175.343ZM705.46 190.355C706.049 189.772 706.054 188.822 705.471 188.234C704.888 187.645 703.939 187.64 703.35 188.222L705.46 190.355ZM683.565 205.484C682.911 205.992 682.793 206.935 683.301 207.589C683.81 208.243 684.752 208.361 685.406 207.853L683.565 205.484ZM671.078 218.283C671.762 217.815 671.937 216.882 671.469 216.198C671 215.515 670.067 215.34 669.383 215.808L671.078 218.283ZM647.14 229.938C646.428 230.361 646.194 231.282 646.617 231.994C647.041 232.706 647.961 232.94 648.673 232.516L647.14 229.938ZM633.356 241.335C634.079 240.93 634.337 240.016 633.932 239.293C633.528 238.57 632.614 238.312 631.891 238.717L633.356 241.335ZM608.695 251.382C607.965 251.774 607.692 252.684 608.085 253.413C608.478 254.143 609.388 254.416 610.117 254.023L608.695 251.382ZM594.607 262.402C595.334 262.005 595.603 261.094 595.207 260.367C594.81 259.639 593.899 259.371 593.172 259.767L594.607 262.402ZM568.491 273.502C567.768 273.907 567.51 274.821 567.915 275.543C568.319 276.266 569.233 276.524 569.956 276.12L568.491 273.502ZM552.521 285.921C553.242 285.513 553.495 284.598 553.087 283.877C552.679 283.156 551.763 282.903 551.042 283.311L552.521 285.921ZM525.047 298.382C524.336 298.807 524.104 299.728 524.529 300.439C524.954 301.151 525.875 301.383 526.586 300.958L525.047 298.382ZM509.567 311.406C510.267 310.963 510.476 310.037 510.033 309.337C509.59 308.637 508.663 308.428 507.963 308.871L509.567 311.406ZM482.955 325.609C482.28 326.089 482.123 327.026 482.603 327.701C483.084 328.376 484.02 328.533 484.695 328.053L482.955 325.609ZM468.727 339.988C469.378 339.475 469.491 338.532 468.979 337.881C468.466 337.23 467.523 337.117 466.872 337.629L468.727 339.988ZM444.669 356.679C444.069 357.25 444.045 358.2 444.615 358.8C445.186 359.401 446.136 359.425 446.736 358.854L444.669 356.679ZM433.808 372.325C434.349 371.699 434.281 370.751 433.654 370.21C433.027 369.668 432.08 369.737 431.538 370.364L433.808 372.325ZM415.234 393.759C414.846 394.491 415.125 395.399 415.857 395.787C416.589 396.175 417.497 395.896 417.885 395.164L415.234 393.759ZM410.92 412.279C411.147 411.482 410.687 410.652 409.89 410.424C409.094 410.196 408.263 410.657 408.035 411.454L410.92 412.279ZM405.239 443.048C405.318 443.873 406.049 444.478 406.874 444.4C407.699 444.322 408.304 443.59 408.226 442.765L405.239 443.048ZM413.206 464.723C412.924 463.944 412.064 463.541 411.285 463.823C410.506 464.105 410.103 464.965 410.385 465.744L413.206 464.723ZM427.357 496.081C427.863 496.736 428.805 496.858 429.461 496.351C430.117 495.845 430.238 494.903 429.732 494.247L427.357 496.081ZM445.03 511.006C444.426 510.439 443.477 510.469 442.91 511.074C442.343 511.678 442.373 512.627 442.977 513.194L445.03 511.006ZM470.534 534.245C471.237 534.682 472.162 534.467 472.6 533.764C473.038 533.061 472.822 532.136 472.119 531.698L470.534 534.245ZM492.134 542.543C491.383 542.192 490.491 542.517 490.141 543.268C489.79 544.019 490.115 544.911 490.866 545.261L492.134 542.543ZM520.395 556.254C521.189 556.49 522.024 556.038 522.26 555.243C522.496 554.449 522.044 553.614 521.25 553.378L520.395 556.254ZM539.346 558.113C538.539 557.929 537.734 558.434 537.55 559.242C537.366 560.05 537.872 560.854 538.68 561.038L539.346 558.113ZM566.545 566.133C567.365 566.249 568.124 565.678 568.24 564.858C568.356 564.037 567.785 563.278 566.965 563.162L566.545 566.133ZM585.573 565.337C584.748 565.26 584.017 565.866 583.939 566.69C583.862 567.515 584.468 568.247 585.293 568.324L585.573 565.337ZM613.529 570.116C614.357 570.146 615.052 569.498 615.081 568.67C615.111 567.843 614.464 567.147 613.636 567.118L613.529 570.116ZM632.392 567.491C631.564 567.487 630.889 568.155 630.885 568.983C630.88 569.812 631.548 570.487 632.377 570.491L632.392 567.491ZM660.976 570.098C661.804 570.073 662.455 569.381 662.429 568.553C662.403 567.725 661.711 567.074 660.883 567.1L660.976 570.098ZM680.093 566.29C679.266 566.334 678.631 567.04 678.675 567.868C678.719 568.695 679.425 569.33 680.252 569.286L680.093 566.29ZM709.12 567.301C709.945 567.232 710.558 566.506 710.489 565.68C710.419 564.855 709.694 564.242 708.868 564.312L709.12 567.301ZM728.015 562.512C727.191 562.597 726.592 563.335 726.677 564.159C726.763 564.983 727.5 565.581 728.324 565.496L728.015 562.512ZM757.056 562.115C757.878 562.007 758.456 561.254 758.348 560.432C758.24 559.611 757.487 559.032 756.666 559.14L757.056 562.115ZM775.714 556.472C774.895 556.594 774.329 557.357 774.451 558.176C774.573 558.996 775.336 559.561 776.156 559.439L775.714 556.472ZM804.713 554.839C805.529 554.698 806.076 553.921 805.935 553.105C805.794 552.289 805.017 551.742 804.201 551.883L804.713 554.839ZM823.132 548.458C822.318 548.612 821.782 549.396 821.936 550.21C822.089 551.024 822.873 551.56 823.688 551.406L823.132 548.458ZM851.834 545.78C852.645 545.608 853.162 544.811 852.99 544.001C852.818 543.19 852.022 542.673 851.212 542.845L851.834 545.78ZM869.709 538.766C868.902 538.951 868.397 539.755 868.581 540.563C868.766 541.37 869.57 541.875 870.378 541.691L869.709 538.766ZM898.07 535.031C898.873 534.829 899.36 534.013 899.158 533.21C898.955 532.407 898.14 531.92 897.337 532.122L898.07 535.031ZM915.675 527.364C914.875 527.578 914.399 528.4 914.612 529.2C914.826 530.001 915.648 530.476 916.448 530.263L915.675 527.364ZM943.891 522.655C944.687 522.426 945.147 521.595 944.918 520.799C944.689 520.003 943.858 519.543 943.062 519.772L943.891 522.655ZM961.242 514.429C960.448 514.667 959.998 515.504 960.236 516.297C960.474 517.091 961.311 517.541 962.104 517.302L961.242 514.429ZM989.306 508.889C990.096 508.638 990.532 507.795 990.281 507.005C990.03 506.216 989.186 505.779 988.397 506.03L989.306 508.889ZM1006.43 500.197C1005.64 500.456 1005.21 501.304 1005.47 502.091C1005.73 502.878 1006.58 503.306 1007.37 503.047L1006.43 500.197ZM1034.35 493.971C1035.13 493.701 1035.55 492.848 1035.28 492.065C1035.01 491.281 1034.16 490.864 1033.37 491.133L1034.35 493.971ZM1051.27 484.903C1050.49 485.179 1050.08 486.035 1050.36 486.817C1050.63 487.598 1051.49 488.008 1052.27 487.733L1051.27 484.903ZM1079.07 478.133C1079.85 477.85 1080.25 476.989 1079.97 476.21C1079.68 475.432 1078.82 475.03 1078.04 475.314L1079.07 478.133ZM1095.84 468.779C1095.06 469.066 1094.66 469.929 1094.95 470.706C1095.24 471.483 1096.1 471.88 1096.88 471.592L1095.84 468.779ZM1123.53 461.605C1124.31 461.311 1124.7 460.446 1124.4 459.671C1124.11 458.896 1123.24 458.506 1122.47 458.799L1123.53 461.605ZM1140.19 452.049C1139.41 452.346 1139.03 453.213 1139.32 453.987C1139.62 454.76 1140.49 455.147 1141.26 454.851L1140.19 452.049ZM8.46425 117.092C11.108 116.232 13.5475 115.007 15.8635 113.638L14.3367 111.055C12.1353 112.357 9.90213 113.469 7.53575 114.24L8.46425 117.092ZM24.6817 107.867C26.8565 106.443 29.0268 105.13 31.3015 104.081L30.0445 101.357C27.5739 102.497 25.2619 103.901 23.0389 105.356L24.6817 107.867ZM31.3015 104.081C35.6917 102.055 40.104 100.066 44.5369 98.1122L43.3271 95.3669C38.8789 97.3272 34.4507 99.3232 30.0445 101.357L31.3015 104.081ZM62.3383 90.4985C71.2678 86.7912 80.269 83.2167 89.3276 79.7629L88.2589 76.9598C79.1745 80.4233 70.1461 84.0087 61.188 87.7278L62.3383 90.4985ZM107.485 73.0246C116.59 69.7351 125.742 66.5578 134.928 63.4809L133.975 60.6363C124.769 63.7201 115.594 66.905 106.466 70.2031L107.485 73.0246ZM153.341 57.4575C162.577 54.5057 171.836 51.6467 181.106 48.8685L180.245 45.9948C170.959 48.7777 161.682 51.6421 152.428 54.5999L153.341 57.4575ZM199.698 43.4039C204.358 42.0599 209.019 40.7342 213.678 39.4255L212.866 36.5373C208.201 37.8478 203.534 39.1753 198.867 40.5214L199.698 43.4039ZM213.678 39.4255C218.41 38.0961 223.158 36.8033 227.923 35.5473L227.158 32.6464C222.378 33.9066 217.614 35.2035 212.866 36.5373L213.678 39.4255ZM247.012 30.73C256.564 28.426 266.172 26.2673 275.825 24.2543L275.213 21.3175C265.529 23.3368 255.892 25.5023 246.308 27.8136L247.012 30.73ZM295.138 20.4321C304.804 18.6211 314.51 16.9546 324.245 15.4331L323.781 12.4691C314.017 13.9952 304.282 15.6668 294.586 17.4834L295.138 20.4321ZM343.727 12.5867C353.48 11.2608 363.256 10.0795 373.047 9.04306L372.731 6.05973C362.911 7.09924 353.105 8.28413 343.323 9.61407L343.727 12.5867ZM392.647 7.16357C402.461 6.31994 412.283 5.62169 422.106 5.06915L421.937 2.07389C412.085 2.62808 402.233 3.32843 392.39 4.1746L392.647 7.16357ZM441.774 4.15747C451.626 3.79838 461.471 3.58625 471.3 3.5214L471.281 0.52147C461.421 0.586509 451.546 0.799286 441.664 1.15946L441.774 4.15747ZM490.99 3.58893C495.916 3.65538 500.837 3.75907 505.751 3.90005L505.837 0.901288C500.908 0.75987 495.972 0.655858 491.03 0.589207L490.99 3.58893ZM505.751 3.90005C510.584 4.03868 515.42 4.21612 520.257 4.43761L520.395 1.44075C515.539 1.21843 510.686 1.04037 505.837 0.901288L505.751 3.90005ZM539.574 5.56863C549.221 6.26307 558.856 7.16061 568.456 8.30279L568.81 5.3238C559.16 4.1756 549.478 3.27383 539.789 2.57638L539.574 5.56863ZM587.611 10.9272C597.168 12.4166 606.673 14.1791 616.102 16.2565L616.748 13.3268C607.253 11.235 597.687 9.46119 588.073 7.96294L587.611 10.9272ZM634.866 20.847C639.527 22.1055 644.164 23.4497 648.776 24.8848L649.667 22.0203C645.018 20.5736 640.344 19.2188 635.648 17.9507L634.866 20.847ZM648.776 24.8848C653.837 26.46 659.106 28.1804 664.453 30.087L665.46 27.2612C660.065 25.3373 654.756 23.6039 649.667 22.0203L648.776 24.8848ZM684.835 38.2866C694.873 42.8768 704.586 48.2947 713.132 54.8025L714.949 52.4157C706.178 45.7361 696.258 40.2113 686.083 35.5584L684.835 38.2866ZM728.792 69.8107C732.186 74.0215 735.108 78.5706 737.445 83.4957L740.155 82.2096C737.709 77.0542 734.657 72.3067 731.128 67.9283L728.792 69.8107ZM737.445 83.4957C739.318 87.443 740.666 91.5115 741.553 95.6541L744.486 95.0265C743.554 90.6667 742.133 86.3762 740.155 82.2096L737.445 83.4957ZM742.769 112.767C742.27 121.288 740.258 129.848 737.23 138.051L740.044 139.09C743.155 130.663 745.244 121.81 745.764 112.942L742.769 112.767ZM729.98 153.837C727.838 157.724 725.519 161.436 723.095 164.919L725.557 166.632C728.039 163.066 730.414 159.265 732.607 155.285L729.98 153.837ZM723.095 164.919C720.591 168.515 717.943 171.986 715.164 175.343L717.475 177.256C720.305 173.838 723.004 170.3 725.557 166.632L723.095 164.919ZM703.35 188.222C697.159 194.348 690.526 200.074 683.565 205.484L685.406 207.853C692.447 202.381 699.173 196.577 705.46 190.355L703.35 188.222ZM669.383 215.808C662.172 220.746 654.721 225.429 647.14 229.938L648.673 232.516C656.295 227.983 663.802 223.265 671.078 218.283L669.383 215.808ZM631.891 238.717C624.174 243.036 616.407 247.229 608.695 251.382L610.117 254.023C617.829 249.871 625.615 245.667 633.356 241.335L631.891 238.717ZM593.172 259.767C589.268 261.894 585.399 264.025 581.581 266.169L583.05 268.785C586.853 266.649 590.71 264.525 594.607 262.402L593.172 259.767ZM581.581 266.169C577.235 268.611 572.869 271.052 568.491 273.502L569.956 276.12C574.333 273.671 578.701 271.228 583.05 268.785L581.581 266.169ZM551.042 283.311C542.346 288.237 533.656 293.24 525.047 298.382L526.586 300.958C535.167 295.832 543.836 290.841 552.521 285.921L551.042 283.311ZM507.963 308.871C499.472 314.244 491.11 319.802 482.955 325.609L484.695 328.053C492.798 322.283 501.113 316.755 509.567 311.406L507.963 308.871ZM466.872 337.629C462.921 340.737 459.034 343.92 455.221 347.185L457.173 349.464C460.952 346.227 464.806 343.071 468.727 339.988L466.872 337.629ZM455.221 347.185C451.657 350.238 448.119 353.401 444.669 356.679L446.736 358.854C450.142 355.617 453.64 352.489 457.173 349.464L455.221 347.185ZM431.538 370.364C425.267 377.619 419.664 385.398 415.234 393.759L417.885 395.164C422.187 387.044 427.649 379.451 433.808 372.325L431.538 370.364ZM408.035 411.454C406.734 416.003 405.805 420.703 405.31 425.56L408.295 425.865C408.771 421.19 409.665 416.664 410.92 412.279L408.035 411.454ZM405.31 425.56C404.703 431.516 404.7 437.351 405.239 443.048L408.226 442.765C407.705 437.262 407.707 431.624 408.295 425.865L405.31 425.56ZM410.385 465.744C414.314 476.599 420.159 486.756 427.357 496.081L429.732 494.247C422.696 485.133 417.015 475.246 413.206 464.723L410.385 465.744ZM442.977 513.194C451.393 521.092 460.741 528.149 470.534 534.245L472.119 531.698C462.479 525.696 453.289 518.758 445.03 511.006L442.977 513.194ZM490.866 545.261C496.203 547.75 501.574 549.954 506.91 551.856L507.917 549.03C502.671 547.16 497.387 544.992 492.134 542.543L490.866 545.261ZM506.91 551.856C511.369 553.444 515.866 554.908 520.395 556.254L521.25 553.378C516.77 552.047 512.324 550.6 507.917 549.03L506.91 551.856ZM538.68 561.038C547.881 563.135 557.183 564.81 566.545 566.133L566.965 563.162C557.678 561.85 548.458 560.189 539.346 558.113L538.68 561.038ZM585.293 568.324C594.686 569.205 604.112 569.779 613.529 570.116L613.636 567.118C604.269 566.783 594.902 566.212 585.573 565.337L585.293 568.324ZM632.377 570.491C637.099 570.515 641.811 570.49 646.51 570.425L646.468 567.425C641.787 567.49 637.093 567.515 632.392 567.491L632.377 570.491ZM646.51 570.425C651.331 570.357 656.154 570.248 660.976 570.098L660.883 567.1C656.077 567.249 651.272 567.358 646.468 567.425L646.51 570.425ZM680.252 569.286C689.88 568.775 699.504 568.11 709.12 567.301L708.868 564.312C699.282 565.118 689.689 565.781 680.093 566.29L680.252 569.286ZM728.324 565.496C737.917 564.501 747.496 563.37 757.056 562.115L756.666 559.14C747.131 560.393 737.579 561.52 728.015 562.512L728.324 565.496ZM776.156 559.439C785.7 558.02 795.221 556.483 804.713 554.839L804.201 551.883C794.731 553.523 785.234 555.056 775.714 556.472L776.156 559.439ZM823.688 551.406C828.428 550.513 833.16 549.594 837.883 548.652L837.296 545.71C832.583 546.65 827.862 547.567 823.132 548.458L823.688 551.406ZM837.883 548.652C842.542 547.723 847.192 546.765 851.834 545.78L851.212 542.845C846.581 543.828 841.943 544.783 837.296 545.71L837.883 548.652ZM870.378 541.691C879.64 539.573 888.87 537.35 898.07 535.031L897.337 532.122C888.157 534.436 878.949 536.653 869.709 538.766L870.378 541.691ZM916.448 530.263C925.623 527.815 934.77 525.277 943.891 522.655L943.062 519.772C933.959 522.388 924.831 524.922 915.675 527.364L916.448 530.263ZM962.104 517.302C971.196 514.573 980.262 511.766 989.306 508.889L988.397 506.03C979.367 508.902 970.316 511.704 961.242 514.429L962.104 517.302ZM1007.37 503.047C1016.38 500.082 1025.37 497.054 1034.35 493.971L1033.37 491.133C1024.41 494.213 1015.43 497.237 1006.43 500.197L1007.37 503.047ZM1052.27 487.733C1061.22 484.58 1070.15 481.377 1079.07 478.133L1078.04 475.314C1069.14 478.555 1060.21 481.754 1051.27 484.903L1052.27 487.733ZM1096.88 471.592C1105.78 468.296 1114.66 464.964 1123.53 461.605L1122.47 458.799C1113.6 462.156 1104.73 465.486 1095.84 468.779L1096.88 471.592ZM1141.26 454.851C1145.69 453.154 1150.12 451.452 1154.54 449.745L1153.46 446.946C1149.04 448.652 1144.61 450.354 1140.19 452.049L1141.26 454.851Z" fill="#4545B1"/>
</svg>
